# xmcd
#
# Track frame offsets: 
#        150
#        18438
#        30926
#        49789
#        64934
#        84750
#        107108
#        123921
#        144117
#        163065
#        179273
#        204489
#        221489
#        234699
#        248966
#        275315
#        305446
#
# Disc length: 4233 seconds
#
# Revision: 0
# Processed by: cddbd v1.5.1PL2 Copyright (c) Steve Scherf et al.
# Submitted via: ExactAudioCopy v0.95b3
#
DISCID=e1108711
DTITLE=Mary Coughlan - Mary Coughlan - The Best
DYEAR=2005
DGENRE=Blues
TTITLE0=Meet Where They Play the Blues
TTITLE1=Don't Smoke in Bed
TTITLE2=The Little Death
TTITLE3=Hearts
TTITLE4=Magdenlen Laundry
TTITLE5=A Thrill's a Thrill
TTITLE6=You Go To My Head
TTITLE7=Not Up to Scratch
TTITLE8=John Fell Off the Work-around
TTITLE9=Run Away Teddy
TTITLE10=Saint Judy
TTITLE11=Long Honeymoon
TTITLE12=It Never Entered My Mind
TTITLE13=Lucky Day
TTITLE14=I'd Rather Go Blind
TTITLE15=You've Changed
TTITLE16=I'll Be Seeing You
EXTD=
EXTT0=
EXTT1=
EXTT2=
EXTT3=
EXTT4=
EXTT5=
EXTT6=
EXTT7=
EXTT8=
EXTT9=
EXTT10=
EXTT11=
EXTT12=
EXTT13=
EXTT14=
EXTT15=
EXTT16=
PLAYORDER=
